<svg id="visual" viewBox="0 0 675 900" width="675" height="900" xmlns="http://www.w3.org/2000/svg" xmlns:xlink="http://www.w3.org/1999/xlink" version="1.1"><rect x="0" y="0" width="675" height="900" fill="#ffffff"></rect><defs><linearGradient id="grad1_0" x1="0%" y1="100%" x2="100%" y2="0%"><stop offset="30%" stop-color="#ffffff" stop-opacity="1"></stop><stop offset="70%" stop-color="#ffffff" stop-opacity="1"></stop></linearGradient></defs><defs><linearGradient id="grad2_0" x1="0%" y1="100%" x2="100%" y2="0%"><stop offset="30%" stop-color="#ffffff" stop-opacity="1"></stop><stop offset="70%" stop-color="#ffffff" stop-opacity="1"></stop></linearGradient></defs><g transform="translate(675, 900)"><path d="M-225 0C-213.1 -26.5 -201.2 -53 -190.3 -78.8C-179.4 -104.7 -169.4 -129.9 -152.7 -152.7C-136.1 -175.6 -112.7 -196.2 -86.1 -207.9C-59.5 -219.5 -29.8 -222.3 0 -225L0 0Z" fill="#3c91fa"></path></g><g transform="translate(0, 0)"><path d="M225 0C202.3 22.9 179.5 45.8 167.2 69.3C154.9 92.8 153 116.9 142.1 142.1C131.2 167.4 111.3 193.9 86.1 207.9C60.9 221.9 30.5 223.4 0 225L0 0Z" fill="#3c91fa"></path></g></svg>